<svg xmlns="http://www.w3.org/2000/svg" xmlns:xlink="http://www.w3.org/1999/xlink" width="350" height="50" version="1.1" viewBox="179 208 350 50"><g id="Group" fill="none" fill-rule="evenodd" stroke="none" stroke-width="1" transform="translate(179.000000, 208.000000)"><rect id="Rectangle" width="350" height="50" x="0" y="0" fill="#3378F6" rx="8"/><path id="Line" stroke="#FFF" stroke-linecap="square" stroke-width="2" d="M288,8.5 L288,38.5"/><g id="back" fill="#FFF" transform="translate(15.000000, 11.000000)"><path id="Shape" d="M9.1,9.05 C15.2,9.05 20.1,13.95 20.1,20.05 L20.1,23.05 C20.1,23.65 20.5,24.05 21.1,24.05 L23.1,24.05 C23.7,24.05 24.1,23.65 24.1,23.05 L24.1,20.05 C24.1,11.75 17.4,5.05 9.1,5.05 L8.5,5.05 C8.1,5.05 7.8,4.55 8.1,4.15 L9.1,3.15 C9.3,2.95 9.4,2.75 9.4,2.45 C9.4,2.15 9.3,1.95 9.1,1.75 L7.7,0.35 C7.5,0.15 7.3,0.05 7,0.05 C6.7,0.05 6.5,0.15 6.3,0.35 L0.3,6.35 C0.1,6.55 7.21644966e-16,6.85 7.21644966e-16,7.05 C7.21644966e-16,7.35 0.1,7.55 0.3,7.75 L6.3,13.75 C6.5,13.95 6.7,14.05 7,14.05 C7.3,14.05 7.5,13.95 7.7,13.75 L9.1,12.35 C9.3,12.15 9.4,11.95 9.4,11.65 C9.4,11.35 9.3,11.15 9.1,10.95 L8.1,9.95 C7.8,9.65 8,9.05 8.5,9.05 L9.1,9.05 L9.1,9.05 Z"/></g><text id="7th-Ave,-New-York…" fill="#FFF" font-family="Helvetica" font-size="20" font-weight="normal"><tspan x="84" y="30">7th Ave, New York…</tspan></text><text id="100m" fill="#FFF" font-family="Helvetica" font-size="14" font-weight="normal"><tspan x="299" y="29">100m</tspan></text></g></svg>